<?xml version="1.0" standalone="no"?>
<!DOCTYPE svg PUBLIC "-//W3C//DTD SVG 20010904//EN"
 "http://www.w3.org/TR/2001/REC-SVG-20010904/DTD/svg10.dtd">
<svg version="1.0" xmlns="http://www.w3.org/2000/svg"
 width="640.000000pt" height="1280.000000pt" viewBox="0 0 640.000000 1280.000000"
 preserveAspectRatio="xMidYMid meet">
<metadata>
Created by potrace 1.15, written by Peter Selinger 2001-2017
</metadata>
<g transform="translate(0.000000,1280.000000) scale(0.100000,-0.100000)"
fill="#000000" stroke="none">
<path d="M3040 12786 c-438 -78 -765 -396 -854 -829 -19 -91 -22 -272 -6 -369
54 -340 298 -652 613 -785 165 -69 212 -78 417 -77 172 0 191 2 275 28 183 55
326 139 453 265 363 359 413 913 121 1337 -59 85 -180 204 -268 264 -92 62
-217 118 -329 146 -120 32 -309 40 -422 20z"/>
<path d="M2285 10435 c-293 -47 -542 -177 -751 -391 -178 -183 -280 -362 -367
-649 -30 -99 -115 -376 -187 -615 -73 -239 -181 -595 -240 -790 -59 -195 -167
-551 -240 -790 -72 -239 -150 -493 -172 -563 -71 -230 -81 -315 -53 -436 31
-130 117 -235 240 -293 118 -55 278 -49 385 14 49 29 126 105 160 158 38 59
54 104 149 425 419 1413 673 2267 707 2383 l25 82 110 0 c101 0 110 -2 105
-17 -10 -33 -122 -421 -326 -1128 -213 -738 -430 -1494 -660 -2290 -76 -264
-200 -693 -275 -954 -75 -260 -139 -480 -142 -487 -4 -12 100 -14 656 -14
l661 0 0 -1818 c0 -1263 3 -1836 11 -1878 43 -236 262 -398 514 -381 226 16
400 159 444 365 8 38 11 568 11 1892 l0 1840 145 0 144 0 3 -1857 c3 -1849 3
-1858 24 -1914 46 -126 117 -211 221 -267 147 -78 338 -81 484 -7 67 35 158
121 192 183 60 111 57 -5 57 2004 l0 1838 660 0 c368 0 660 4 660 9 0 4 -13
53 -29 107 -29 98 -99 339 -291 999 -169 582 -589 2029 -790 2720 -106 363
-218 749 -249 858 l-58 197 119 0 c86 0 120 -3 123 -12 2 -7 53 -179 114 -383
60 -203 168 -566 239 -805 72 -239 198 -664 282 -945 83 -280 165 -551 181
-602 35 -106 86 -190 153 -251 218 -200 568 -106 675 182 27 73 37 192 22 271
-6 33 -140 483 -297 1000 -717 2356 -657 2168 -740 2308 -185 308 -476 551
-779 651 -190 63 -140 60 -1085 62 -670 2 -883 0 -945 -11z"/>
</g>
</svg>
